<?xml version="1.0" encoding="UTF-8" standalone="no"?>
<!DOCTYPE svg PUBLIC "-//W3C//DTD SVG 1.1//EN" "http://www.w3.org/Graphics/SVG/1.1/DTD/svg11.dtd">
<svg version="1.1" xmlns="http://www.w3.org/2000/svg" xmlns:xlink="http://www.w3.org/1999/xlink" preserveAspectRatio="xMidYMid meet" viewBox="0 0 640 640" width="640" height="640"><defs><path d="M0 0L640 0L640 643.9L0 643.9L0 0Z" id="aGMlXektU"></path><path d="M239.64 120.44C243.67 112.34 275.92 47.57 279.95 39.47C142.54 58.99 36.52 177.39 36.52 320.11C36.52 449.96 124.28 559.69 243.59 593.12C244.37 586.22 250.57 531.03 251.35 524.13C166.22 495.41 104.75 414.81 104.75 320.11C104.75 229.82 160.64 152.34 239.64 120.44Z" id="b64RiMxAyq"></path><path d="M396.49 46.14C395.69 53.03 389.35 108.18 388.56 115.07C473.74 143.77 535.25 224.4 535.25 319.13C535.25 408.89 480.01 485.99 401.74 518.24C397.6 526.39 364.45 591.58 360.31 599.73C497.6 580.1 603.48 461.75 603.48 319.13C603.48 189.3 515.76 79.6 396.49 46.14Z" id="g2rUxjnAz5"></path><path d="M481.59 269.61C478.49 264.56 472.99 262.54 467.05 262.54C458.41 262.54 415.18 262.54 337.36 262.54C354.12 116.92 363.42 36.01 365.28 19.83C366.23 11.6 361.13 3.08 353.19 0.72C351.55 0.23 349.89 0 348.25 0C341.95 0 336 3.58 333.06 9.47C315.52 44.71 175.21 326.65 157.68 361.89C155.04 367.18 155.33 374.21 158.44 379.24C161.55 384.26 167.04 388.35 172.95 388.35C181.48 388.35 224.14 388.35 300.93 388.35C285.18 528.5 276.44 606.36 274.69 621.93C273.77 630.13 278.85 637.02 286.75 639.38C288.37 639.87 290.02 640 291.64 640C297.93 640 303.88 636.51 306.85 630.66C318.55 607.67 377.02 492.7 482.26 285.76C483.88 278.37 483.66 272.98 481.59 269.61Z" id="d1e6rJVpDD"></path></defs><g><g><g><use xlink:href="#aGMlXektU" opacity="1" fill="#00cafc" fill-opacity="1"></use></g><g><use xlink:href="#b64RiMxAyq" opacity="1" fill="#3c0599" fill-opacity="1"></use><g><use xlink:href="#b64RiMxAyq" opacity="1" fill-opacity="0" stroke="#000000" stroke-width="1" stroke-opacity="0"></use></g></g><g><use xlink:href="#g2rUxjnAz5" opacity="1" fill="#3c0599" fill-opacity="1"></use><g><use xlink:href="#g2rUxjnAz5" opacity="1" fill-opacity="0" stroke="#000000" stroke-width="1" stroke-opacity="0"></use></g></g><g><use xlink:href="#d1e6rJVpDD" opacity="1" fill="#f8f337" fill-opacity="1"></use><g><use xlink:href="#d1e6rJVpDD" opacity="1" fill-opacity="0" stroke="#000000" stroke-width="1" stroke-opacity="0"></use></g></g></g></g></svg>